Coordinates
version=1
nRows=13
nColumns=40
inDegrees=yes

Units are S.I. units (second, meters, Newtons, ...)
Angles are in degrees.

endheader
time	pelvis_tilt	pelvis_list	pelvis_rotation	pelvis_tx	pelvis_ty	pelvis_tz	hip_flexion_r	hip_adduction_r	hip_rotation_r	knee_angle_r	knee_angle_r_beta	ankle_angle_r	subtalar_angle_r	mtp_angle_r	hip_flexion_l	hip_adduction_l	hip_rotation_l	knee_angle_l	knee_angle_l_beta	ankle_angle_l	subtalar_angle_l	mtp_angle_l	lumbar_extension	lumbar_bending	lumbar_rotation	arm_flex_r	arm_add_r	arm_rot_r	elbow_flex_r	pro_sup_r	wrist_flex_r	wrist_dev_r	arm_flex_l	arm_add_l	arm_rot_l	elbow_flex_l	pro_sup_l	wrist_flex_l	wrist_dev_l
      9.99500000	     -6.58563070	     -4.96480446	      7.67030185	      0.93562803	      0.91739037	      0.50097565	      0.06590218	      3.63199735	    -18.13020628	     14.65107787	     14.65107787	     18.28888385	     -2.52225963	     -0.94858038	     29.31195110	     -4.01384323	      4.19812879	     24.52418088	     24.52418088	      4.38298076	    -12.62808787	      0.72772257	     -8.37120272	      0.94964227	      3.90708829	     55.20938965	    -17.56343211	     -4.69719186	     81.17017513	     44.63354227	      0.00000000	      0.00000000	     -9.95207283	    -10.91913824	     14.08490427	     29.80929665	     43.87926939	      0.00000000	      0.00000000
     10.01600000	     -6.75203202	     -4.96258416	      7.32303523	      0.93647599	      0.91815195	      0.49709179	     -0.17865001	      3.23413209	    -18.23022356	     14.81376529	     14.81376529	     17.91894604	     -1.86261210	     -1.19673262	     29.02080442	     -3.84903491	      4.12600853	     24.79403673	     24.79403673	      5.20123391	    -12.90800870	      1.48574421	     -8.28095887	      1.02856795	      3.97867674	     55.14838485	    -17.38311151	     -4.65557704	     79.33000185	     44.71046076	      0.00000000	      0.00000000	     -9.68344115	    -11.19989700	     14.04839467	     30.37937668	     43.92873146	      0.00000000	      0.00000000
     10.03700000	     -6.92025473	     -4.97556823	      6.97801372	      0.93711444	      0.91886168	      0.49319135	     -0.39407207	      2.83717005	    -18.37602412	     14.98033634	     14.98033634	     17.45072096	     -1.16719283	     -1.75001624	     28.77550470	     -3.70515888	      4.00412260	     25.12924419	     25.12924419	      6.22801083	    -13.03742940	      2.76402011	     -8.20513956	      1.14968661	      3.50777965	     55.39599992	    -16.57273527	     -4.53690924	     76.69355583	     44.82860995	      0.00000000	      0.00000000	     -9.79871675	    -11.53564900	     14.12456285	     31.27566189	     44.00431348	      0.00000000	      0.00000000
     10.05800000	     -7.08163438	     -5.02325362	      6.58824106	      0.93766824	      0.91951746	      0.48926581	     -0.60018726	      2.49214646	    -18.34879848	     15.14324963	     15.14324963	     17.07288388	     -0.62267050	     -1.93013473	     28.44036517	     -3.61566834	      3.83391691	     25.26760314	     25.26760314	      6.78142380	    -13.31324125	      2.98405859	     -8.15589743	      1.33126896	      3.84772946	     54.94808772	    -16.86829533	     -4.73102910	     75.10471914	     44.89709550	      0.00000000	      0.00000000	     -9.29595665	    -11.81267589	     14.04896753	     31.83466351	     44.05290015	      0.00000000	      0.00000000
     10.07900000	     -7.22500155	     -5.03277545	      6.19032339	      0.93812407	      0.92006683	      0.48526825	     -0.79509894	      2.05827422	    -18.48120519	     15.37436152	     15.37436152	     16.72117672	      0.18585700	     -2.34476653	     28.10356597	     -3.47661760	      3.66299324	     25.44658923	     25.44658923	      7.40002703	    -13.61402017	      3.45938662	     -8.09608004	      1.50432456	      3.88706224	     54.65121234	    -16.75361409	     -5.06377443	     72.72119798	     44.99987533	      0.00000000	      0.00000000	     -8.98859522	    -12.11220089	     14.10908464	     32.48180356	     44.09220293	      0.00000000	      0.00000000
     10.10000000	     -7.35612623	     -5.05557301	      5.76014988	      0.93847393	      0.92056464	      0.48135809	     -0.95559426	      1.65353261	    -18.36631557	     15.65143632	     15.65143632	     16.43180634	      0.78116890	     -2.59904499	     27.76829090	     -3.37297382	      3.44526887	     25.62901958	     25.62901958	      7.85702636	    -13.90970484	      3.67422227	     -8.08940839	      1.68047016	      4.03354097	     53.81051167	    -16.89395025	     -5.33634597	     70.88417053	     45.07291515	      0.00000000	      0.00000000	     -8.52445627	    -12.40560053	     14.08260224	     32.98800603	     44.12238075	      0.00000000	      0.00000000
     10.12100000	     -7.48406515	     -5.07056200	      5.30748643	      0.93875566	      0.92087577	      0.47733724	     -1.06691508	      1.17253463	    -18.53407568	     16.01605824	     16.01605824	     15.91494088	      1.52860137	     -3.67110419	     27.46426677	     -3.23567256	      3.25220798	     25.90919651	     25.90919651	      8.84318415	    -14.15913056	      4.87802201	     -7.99451072	      1.93192458	      3.43969966	     54.08360744	    -15.83722427	     -6.12392040	     66.75369089	     45.25962443	      0.00000000	      0.00000000	     -8.64270396	    -12.82867677	     14.47075603	     34.08453156	     44.17849757	      0.00000000	      0.00000000
     10.14200000	     -7.54492200	     -5.10589162	      4.81483024	      0.93907412	      0.92118421	      0.47344679	     -1.13563347	      0.73783633	    -18.30525774	     16.57660447	     16.57660447	     15.65667655	      1.87906333	     -3.90665581	     27.08255653	     -3.16250009	      2.98863128	     26.14564558	     26.14564558	      9.30255947	    -14.51898442	      4.88045433	     -8.03707006	      2.17105303	      3.61181227	     52.81408871	    -16.18860008	     -6.33290397	     65.42858911	     45.30884270	      0.00000000	      0.00000000	     -8.07840189	    -13.05646678	     14.37128614	     34.45614516	     44.21271099	      0.00000000	      0.00000000
     10.16300000	     -7.60588022	     -5.11429558	      4.26726065	      0.93927932	      0.92134393	      0.46955950	     -0.98380205	      0.16359210	    -18.14934541	     17.55612090	     17.55612090	     15.41631651	      2.27355147	     -4.47610342	     26.70549865	     -3.06391611	      2.68934441	     26.39084443	     26.39084443	      9.81548653	    -14.94340713	      5.04738720	     -8.03484298	      2.40795973	      3.92798344	     51.56497292	    -16.62917453	     -6.80313772	     63.33964088	     45.39449648	      0.00000000	      0.00000000	     -7.35972079	    -13.27924629	     14.30168097	     34.91721899	     44.24917172	      0.00000000	      0.00000000
     10.18400000	     -7.59723842	     -5.12554117	      3.70736262	      0.93937642	      0.92150541	      0.46573707	     -0.79047026	     -0.44749406	    -17.95954954	     18.66000193	     18.66000193	     14.48515293	      2.47681013	     -6.89879220	     26.33318699	     -2.93740822	      2.52292030	     26.80416348	     26.80416348	     10.82486912	    -15.30283582	      6.46995971	     -8.04691303	      2.62330863	      3.49879106	     51.32152794	    -15.63559749	     -8.41428836	     58.25805246	     45.63144107	      0.00000000	      0.00000000	     -6.92934076	    -13.56859649	     14.77994126	     35.25477719	     44.29096087	      0.00000000	      0.00000000
     10.20500000	     -7.57076832	     -5.16512172	      3.10878943	      0.93947874	      0.92147913	      0.46199603	     -0.24483000	     -1.08976844	    -17.43427912	     20.48366067	     20.48366067	     14.08359508	      2.19635916	     -7.76695647	     25.93805910	     -2.89731393	      2.18475472	     27.17146635	     27.17146635	     11.38510891	    -15.65130167	      6.50183228	     -8.14433882	      2.87342559	      3.64203637	     49.51909990	    -15.98600593	     -8.67687170	     56.60284219	     45.69064411	      0.00000000	      0.00000000	     -6.11910019	    -13.73323463	     14.66550862	     35.66066003	     44.33668214	      0.00000000	      0.00000000
     10.22600000	     -7.45445572	     -5.20997150	      2.52293675	      0.93950907	      0.92140397	      0.45831662	      0.32411410	     -1.69660253	    -16.71837854	     22.33488346	     22.33488346	     12.37789080	      0.94618907	    -11.99926108	     25.56262355	     -2.83603856	      1.92419601	     27.77038696	     27.77038696	     12.48561954	    -15.93521997	      7.82394214	     -8.24227094	      3.14446680	      3.42786869	     48.43916923	    -15.50509190	    -10.06340206	     52.44819709	     45.87099339	      0.00000000	      0.00000000	     -5.23913284	    -13.90311037	     15.05743396	     35.62220516	     44.44825723	      0.00000000	      0.00000000
     10.24700000	     -7.28904528	     -5.23137958	      1.91204778	      0.93946357	      0.92114879	      0.45465046	      1.35575223	     -2.48958314	    -15.99957287	     25.27197081	     25.27197081	     11.78445533	      0.06321627	    -12.98094490	     25.10289195	     -2.77632769	      1.55995349	     28.27116082	     28.27116082	     13.05920694	    -16.31123356	      7.73523799	     -8.47805700	      3.39097121	      3.40592313	     46.24626439	    -15.72815305	    -10.23092292	     50.80880378	     45.92313106	      0.00000000	      0.00000000	     -4.20921703	    -14.00434943	     14.97401471	     35.88248335	     44.48977371	      0.00000000	      0.00000000
